<svg xmlns="http://www.w3.org/2000/svg" width="512" height="512"><path d="M485.883 429.051H166.832c-4.971 0-9-4.029-9-9s4.029-9 9-9h319.051c4.971 0 9 4.029 9 9s-4.029 9-9 9zm0-163.699H166.832c-4.971 0-9-4.029-9-9s4.029-9 9-9h319.051c4.971 0 9 4.029 9 9s-4.029 9-9 9zm0-163.694H166.832c-4.971 0-9-4.029-9-9s4.029-9 9-9h319.051c4.971 0 9 4.029 9 9s-4.029 9-9 9zm-417.08 42.016c-28.134 0-51.022-22.886-51.022-51.016 0-28.134 22.888-51.022 51.022-51.022 28.131 0 51.017 22.889 51.017 51.022 0 28.13-22.886 51.016-51.017 51.016zm0-84.038c-18.208 0-33.022 14.813-33.022 33.022 0 18.205 14.813 33.016 33.022 33.016 18.206 0 33.017-14.811 33.017-33.016 0-18.209-14.811-33.022-33.017-33.022zm0 247.737c-28.134 0-51.022-22.888-51.022-51.021s22.888-51.022 51.022-51.022c28.131 0 51.017 22.889 51.017 51.022s-22.886 51.021-51.017 51.021zm0-84.044c-18.208 0-33.022 14.813-33.022 33.022 0 18.208 14.813 33.021 33.022 33.021 18.206 0 33.017-14.813 33.017-33.021s-14.811-33.022-33.017-33.022zm0 247.737c-28.134 0-51.022-22.886-51.022-51.016 0-28.134 22.888-51.021 51.022-51.021 28.131 0 51.017 22.888 51.017 51.021 0 28.131-22.886 51.016-51.017 51.016zm0-84.037c-18.208 0-33.022 14.813-33.022 33.021 0 18.205 14.813 33.016 33.022 33.016 18.206 0 33.017-14.811 33.017-33.016 0-18.207-14.811-33.021-33.017-33.021z"/></svg>